<svg width="45" height="60" viewBox="0 0 45 60" fill="none" xmlns="http://www.w3.org/2000/svg">
<path d="M44.856 52.396L36.1004 31.5296L42.7698 28.6337C43.8129 28.3169 44.1606 27.3664 43.8129 26.7326L41.0311 19.7623L43.8129 12.7919C44.1606 12.1583 43.4652 11.2077 42.7698 10.8909L35.4676 7.7226L31.9902 1.06923C31.6425 0.118804 30.5995 -0.198006 29.9039 0.118804L22.2539 2.65346L14.6042 0.118804C13.9088 -0.198006 12.8656 0.435613 12.5179 1.06923L9.0407 7.7226L1.73848 10.8911C0.695392 11.2079 0.347697 12.1583 0.695393 12.7921L3.47716 19.7625L0.695393 26.7326C0.347697 27.3662 1.04309 28.3169 1.73848 28.6337L8.31054 31.4851L0 52.0792C0 52.7128 3.33494e-07 53.3465 0.347696 53.6634C0.695392 54.2971 1.39078 54.2971 2.08638 54.2971L10.4317 53.0298L15.6475 59.0496C15.9952 59.3664 16.3429 59.6832 17.0383 59.6832H17.386C18.0814 59.6832 18.4291 59.3664 18.7768 58.7328L22.2991 50.0072L26.0788 59.0496C26.4265 59.6832 26.7742 60 27.4696 60H27.8173C28.5127 60 28.8604 59.6832 29.2081 59.3664L34.4239 53.3466L42.7692 54.6139C43.4646 54.6139 44.16 54.2971 44.5079 53.9803C44.856 53.6633 45.2037 53.0296 44.856 52.396ZM4.86814 13.1089L11.4748 10.2574C11.8225 10.2574 12.1702 9.94063 12.1702 9.62382L15.2996 3.60407L21.9062 5.82192C22.2539 5.82192 22.6016 5.82192 22.9493 5.82192L29.556 3.60407L32.6854 9.62382C32.6854 9.94063 33.0331 10.2574 33.3808 10.2574L39.9874 13.1089L37.5534 19.1287C37.5534 19.4455 37.5534 19.7623 37.5534 20.0791L39.9874 26.0988L33.3808 28.9503C33.0331 28.9503 32.6854 29.2671 32.6854 29.5839L29.556 35.6037L22.9493 33.3858C22.6016 33.3858 22.6016 33.3858 22.2539 33.3858C21.9063 33.3858 21.9062 33.3858 21.9062 33.3858L15.2996 35.6037L12.1702 29.5839C12.1702 29.2671 11.8225 28.9503 11.4748 28.9503L4.86814 26.0988L7.30222 20.0791C7.30222 19.7623 7.30222 19.4455 7.30222 19.1287L4.86814 13.1089ZM16.6906 55.2475L12.5179 50.495C12.1702 49.8614 11.4748 49.8614 10.7792 49.8614L4.17255 50.8118L10.6123 34.8087L12.5179 38.4555C12.8656 39.4059 13.9086 39.7227 14.6042 39.4059L22.2541 36.8713L23.8709 37.4067L16.6906 55.2475ZM33.7289 49.5446C33.0335 49.5446 32.3381 49.8614 31.9902 50.1782L27.8175 54.9307L24.0865 45.5779L26.9692 38.4333L29.9041 39.4059C30.2518 39.4059 30.2518 39.4059 30.5994 39.4059C30.9471 39.4059 31.6425 39.0891 31.9902 38.4555L33.9687 34.6725L40.3353 50.495L33.7289 49.5446Z" fill="#4DC94A"/>
</svg>
